<?xml version="1.0" encoding="UTF-8"?>
<svg version="1.1" xmlns="http://www.w3.org/2000/svg" width="225" height="225">
<path d="M0 0 C74.25 0 148.5 0 225 0 C225 74.25 225 148.5 225 225 C150.75 225 76.5 225 0 225 C0 150.75 0 76.5 0 0 Z " fill="#FEFEFE" transform="translate(0,0)"/>
<path d="M0 0 C1.80285466 1.64644261 3.48208152 3.36023683 5.1484375 5.14453125 C7.15745255 7.15778473 9.28181311 8.80283334 11.5625 10.5 C15.02555423 13.12227875 17.82540117 15.82226691 20.515625 19.2265625 C22.08060488 21.18245006 22.08060488 21.18245006 24.5625 23.29296875 C27.42142095 26.46802038 27.98453924 28.5194728 28.75 32.6875 C29.09998047 34.53214844 29.09998047 34.53214844 29.45703125 36.4140625 C29.92067092 39.47608566 30.22891673 42.4754676 30.4375 45.5625 C30.75858627 49.82038318 32.03966412 51.84867471 35 55 C35 55.99 35 56.98 35 58 C35.59296875 58.26425781 36.1859375 58.52851562 36.796875 58.80078125 C43.29039875 62.33537662 46.94679265 69.26840438 50.375 75.5625 C50.72079102 76.18729248 51.06658203 76.81208496 51.42285156 77.45581055 C53.63452333 81.6738162 54.57248517 85.25458543 55 90 C46.24054837 89.44088607 39.46620281 85.22431481 33.50390625 78.90234375 C30.41902393 75.00016794 28.56276048 70.68828144 27 66 C24.98491642 65.26676204 24.98491642 65.26676204 23 65 C23.11509661 66.41750563 23.24253658 67.83401169 23.375 69.25 C23.47941406 70.43335937 23.47941406 70.43335937 23.5859375 71.640625 C23.88448121 74.01068111 23.88448121 74.01068111 25.0078125 75.99609375 C26.9031406 79.82405956 26.7348069 83.85952284 26 88 C24.38986843 90.80022881 22.35699826 92.81683675 20 95 C17.45718236 97.50153813 14.98458864 100.01722151 12.60546875 102.67578125 C6.26258128 109.59250022 6.26258128 109.59250022 2.78515625 110.71484375 C-1.38261905 110.78683987 -5.11253908 109.33974642 -9 108 C-10.14829977 110.269616 -11.29371978 112.54060778 -12.4375 114.8125 C-12.92573242 115.77639648 -12.92573242 115.77639648 -13.42382812 116.75976562 C-14.79232676 119.48265466 -16.03483265 122.10449794 -17 125 C-28.88 125 -40.76 125 -53 125 C-55.64 119.72 -58.28 114.44 -61 109 C-61.99 108.505 -61.99 108.505 -63 108 C-63.99 108.33 -64.98 108.66 -66 109 C-67.72795352 109.06802967 -69.45835365 109.08495645 -71.1875 109.0625 C-72.53908203 109.04896484 -72.53908203 109.04896484 -73.91796875 109.03515625 C-74.60503906 109.02355469 -75.29210937 109.01195312 -76 109 C-76.02464775 114.53588533 -76.04283496 120.071739 -76.05493164 125.60766602 C-76.05997244 127.4924373 -76.06680498 129.37720465 -76.07543945 131.26196289 C-76.08751617 133.96501636 -76.09323068 136.66801831 -76.09765625 139.37109375 C-76.10281754 140.21900986 -76.10797882 141.06692596 -76.11329651 141.9405365 C-76.11349195 143.96071068 -76.06206211 145.98077934 -76 148 C-75.67 148.33 -75.34 148.66 -75 149 C-74.74964026 152.30516934 -74.81478048 155.62396041 -74.8125 158.9375 C-74.80025391 159.87013672 -74.78800781 160.80277344 -74.77539062 161.76367188 C-74.77249023 163.10075195 -74.77249023 163.10075195 -74.76953125 164.46484375 C-74.76542236 165.285896 -74.76131348 166.10694824 -74.75708008 166.95288086 C-75 169 -75 169 -77 171 C-80.53571429 170.46428571 -80.53571429 170.46428571 -82 169 C-82.09880797 167.52347336 -82.13079245 166.04232764 -82.1328125 164.5625 C-82.13410156 163.66789063 -82.13539062 162.77328125 -82.13671875 161.8515625 C-82.13285156 160.91054687 -82.12898438 159.96953125 -82.125 159 C-82.12886719 158.05898437 -82.13273437 157.11796875 -82.13671875 156.1484375 C-82.13542969 155.25382813 -82.13414063 154.35921875 -82.1328125 153.4375 C-82.13168457 152.61121094 -82.13055664 151.78492188 -82.12939453 150.93359375 C-82 149 -82 149 -81 148 C-80.70684884 142.08799464 -80.6858845 136.17346137 -80.64990234 130.25488281 C-80.63335915 128.25867033 -80.60609075 126.26251669 -80.56787109 124.26660156 C-80.51306525 121.39096288 -80.49122074 118.51671585 -80.4765625 115.640625 C-80.45389313 114.75086975 -80.43122375 113.8611145 -80.40786743 112.94439697 C-80.41071747 112.10713074 -80.4135675 111.2698645 -80.41650391 110.40722656 C-80.40841705 109.67522034 -80.4003302 108.94321411 -80.39199829 108.18902588 C-81.0476467 105.13222031 -81.0476467 105.13222031 -86 101 C-86.33 106.61 -86.66 112.22 -87 118 C-85.68 118.33 -84.36 118.66 -83 119 C-83.33 120.65 -83.66 122.3 -84 124 C-87.3 124 -90.6 124 -94 124 C-94.625 121.625 -94.625 121.625 -95 119 C-94.01 118.01 -94.01 118.01 -93 117 C-92.01 117 -91.02 117 -90 117 C-90.02299928 113.64435983 -90.10057159 110.29204487 -90.1875 106.9375 C-90.19620117 105.52307617 -90.19620117 105.52307617 -90.20507812 104.08007812 C-90.41783476 97.29550545 -91.84877213 94.29364578 -96 89 C-96.3046875 86.453125 -96.3046875 86.453125 -95.875 84.25 C-95.74867187 83.51265625 -95.62234375 82.7753125 -95.4921875 82.015625 C-95 80 -95 80 -94 77 C-93.06188877 67.13179146 -94.87298728 56.38103817 -98 47 C-98.50481853 40.73085822 -97.9609138 36.1181744 -94.5703125 30.7265625 C-92.95381498 27.91980809 -91.83149092 25.15205502 -90.6875 22.125 C-85.65779218 10.08017338 -76.16058691 3.68366158 -64.50390625 -1.578125 C-45.16600862 -8.86550526 -18.19295483 -13.10582528 0 0 Z " fill="#363636" transform="translate(138,31)"/>
<path d="M0 0 C-0.99 0.33 -1.98 0.66 -3 1 C-3.33 1.33 -3.66 1.66 -4 2 C-3.09636719 2.59167969 -2.19273437 3.18335938 -1.26171875 3.79296875 C-0.06995221 4.59060778 1.12143416 5.38881504 2.3125 6.1875 C2.90740234 6.57486328 3.50230469 6.96222656 4.11523438 7.36132812 C7.76274224 9.82696194 10.20549864 11.94955407 12 16 C12.35975418 18.74852193 12.14184108 21.2104588 12 24 C4.99841917 23.02722462 -1.79302012 21.05244008 -8.61914062 19.25976562 C-21.57564359 15.94033098 -34.16063217 14.55840417 -47.5 14.5625 C-48.24268127 14.5614325 -48.98536255 14.56036499 -49.75054932 14.55926514 C-66.15022011 14.59316786 -81.44755031 16.64474603 -95.91796875 24.86328125 C-98 26 -98 26 -100 26 C-100.5625 22.875 -100.5625 22.875 -100 19 C-88.74261418 6.583317 -64.5589495 4.3077657 -49.03857422 0.72460938 C-45.65489946 -0.08229619 -42.32826465 -0.99113523 -39 -2 C-49.17758697 -2.31860272 -58.93020011 -1.35067975 -69 0 C-66.50716251 -2.90831041 -63.89076566 -4.11349581 -60.375 -5.5625 C-59.39273438 -5.97628906 -58.41046875 -6.39007813 -57.3984375 -6.81640625 C-37.70599588 -13.67480833 -17.27768421 -11.46748952 0 0 Z " fill="#F8F8F8" transform="translate(148,49)"/>
<path d="M0 0 C4.64644421 5.09947253 10 13.91967147 10 21 C23.53 21 37.06 21 51 21 C51.66 18.03 52.32 15.06 53 12 C54.18359375 9.29296875 54.18359375 9.29296875 55.4375 7.1875 C56.05431641 6.12595703 56.05431641 6.12595703 56.68359375 5.04296875 C58.03219174 2.95004072 59.48041688 0.97147081 61 -1 C63.31 -0.67 65.62 -0.34 68 0 C67.85908107 3.31272776 67.71134606 6.62511971 67.5625 9.9375 C67.52318359 10.86369141 67.48386719 11.78988281 67.44335938 12.74414062 C66.61827805 30.83246204 66.61827805 30.83246204 62.828125 34.796875 C59.59114662 36.92719411 55.99845387 37.51047763 52.2421875 38.27734375 C49.02998343 38.99331695 46.13452934 40.01817318 43.0625 41.1875 C32.88048373 44.62127892 24.07736285 43.46982565 14.078125 40.00390625 C11.21753625 39.07094774 8.52927278 38.51995149 5.5625 38.0625 C0.73400727 37.16600461 -1.69196128 35.64732474 -5 32 C-7.79541884 21.91526116 -7.17409998 10.38796553 -7 0 C-3.83869689 -1.0537677 -2.99255537 -1.20988078 0 0 Z " fill="#353535" transform="translate(72,146)"/>
<path d="M0 0 C0.495 0.99 0.495 0.99 1 2 C-2.63 2 -6.26 2 -10 2 C-9.505 3.010625 -9.01 4.02125 -8.5 5.0625 C-5.88522652 11.27569984 -6.7905686 16.72689618 -9.0078125 22.9140625 C-10.76490149 26.60809999 -13.3613965 29.18069825 -17 31 C-26.76305677 31.90398674 -35.74817189 28.60144676 -43.37890625 22.5625 C-45.23584773 20.77267689 -46.70807257 19.24539463 -48 17 C-47.90293202 13.88897126 -47.32569832 12.41028503 -45.390625 9.97265625 C-33.28262466 -0.83174552 -15.59989196 -8.07785379 0 0 Z " fill="#FAFAFA" transform="translate(156,87)"/>
<path d="M0 0 C4.16993117 2.15376646 7.34403612 4.01605418 10 8 C10.4937183 11.12688259 10.19301673 12.64154036 8.6875 15.4375 C1.87581969 21.93235797 -7.23225414 25.92628512 -16.625 26.3125 C-20.57241705 26.18516397 -22.99457987 25.74781269 -26 23 C-30.88214502 16.73672186 -30.65941275 9.63189182 -30 2 C-29.67 1.34 -29.34 0.68 -29 0 C-30.29217171 0.47780303 -31.58372046 0.95729106 -32.875 1.4375 C-33.95394531 1.83775391 -33.95394531 1.83775391 -35.0546875 2.24609375 C-37.03648845 2.97916854 -37.03648845 2.97916854 -39 4 C-37.64844718 -0.42326378 -35.80109562 -2.40412982 -32 -5 C-20.75366653 -8.74877782 -10.21150396 -4.66057877 0 0 Z " fill="#FBFBFB" transform="translate(89,92)"/>
<path d="M0 0 C0.969375 0.86625 1.93875 1.7325 2.9375 2.625 C6.39053154 5.60078328 10.03152943 8.08376806 13.88671875 10.5078125 C19.58846729 14.53381609 21.8904916 19.35447933 24.75 25.5625 C25.16121094 26.42552734 25.57242188 27.28855469 25.99609375 28.17773438 C29 34.59970671 29 34.59970671 29 38 C18.43118599 34.19893531 9.1709224 25.15847837 4.06640625 15.26953125 C-0.51703407 5.51503006 -0.51703407 5.51503006 0 0 Z " fill="#373737" transform="translate(168,110)"/>
<path d="M0 0 C3.72145804 1.32000435 6.03850305 3.83375314 8.75 6.625 C9.54921875 7.44226563 10.3484375 8.25953125 11.171875 9.1015625 C11.77515625 9.72804687 12.3784375 10.35453125 13 11 C11.47427344 14.32635882 10.06655496 15.95563002 7 18 C4.69 16.02 2.38 14.04 0 12 C-2.31 13.98 -4.62 15.96 -7 18 C-8.65 16.35 -10.3 14.7 -12 13 C-10.53438126 9.60312324 -8.63352456 7.39277314 -6 4.8125 C-4.948125 3.77029297 -4.948125 3.77029297 -3.875 2.70703125 C-2 1 -2 1 0 0 Z " fill="#F6F6F6" transform="translate(102,122)"/>
<path d="M0 0 C0.96679688 0.00902344 1.93359375 0.01804687 2.9296875 0.02734375 C3.65414062 0.03894531 4.37859375 0.05054687 5.125 0.0625 C5.125 0.3925 5.125 0.7225 5.125 1.0625 C3.34609375 1.4646875 3.34609375 1.4646875 1.53125 1.875 C-14.4303937 5.66433567 -27.40041258 11.23933454 -39.875 22.0625 C-42.875 24.0625 -42.875 24.0625 -45.875 24.0625 C-43.73421268 16.21294651 -36.56148669 11.33252996 -29.828125 7.48046875 C-20.47761988 2.99074209 -10.42496759 -0.12713375 0 0 Z " fill="#F1F1F1" transform="translate(100.875,30.9375)"/>
<path d="M0 0 C1.32 0 2.64 0 4 0 C4 7.92 4 15.84 4 24 C5.32 24.33 6.64 24.66 8 25 C8 26.65 8 28.3 8 30 C5.77109005 31.11445498 4.46944894 31.16480286 2 31.1875 C0.948125 31.20876953 0.948125 31.20876953 -0.125 31.23046875 C-2 31 -2 31 -4 29 C-3.8125 26.9375 -3.8125 26.9375 -3 25 C-2.01 24.67 -1.02 24.34 0 24 C0 16.08 0 8.16 0 0 Z " fill="#414141" transform="translate(160,129)"/>
<path d="M0 0 C0.70125 0.00515625 1.4025 0.0103125 2.125 0.015625 C2.82625 0.01046875 3.5275 0.0053125 4.25 0 C6.125 0.265625 6.125 0.265625 8.125 2.265625 C7.75 4.890625 7.75 4.890625 7.125 7.265625 C3.825 7.265625 0.525 7.265625 -2.875 7.265625 C-3.5 4.890625 -3.5 4.890625 -3.875 2.265625 C-1.875 0.265625 -1.875 0.265625 0 0 Z " fill="#323232" transform="translate(46.875,156.734375)"/>
<path d="M0 0 C1.91015625 0.23046875 1.91015625 0.23046875 3.91015625 2.23046875 C3.53515625 4.85546875 3.53515625 4.85546875 2.91015625 7.23046875 C1.45222741 7.28446611 -0.00627087 7.32326052 -1.46484375 7.35546875 C-2.27695312 7.37867188 -3.0890625 7.401875 -3.92578125 7.42578125 C-6.08984375 7.23046875 -6.08984375 7.23046875 -8.08984375 5.23046875 C-7.24578654 -0.34030882 -5.3755226 0.10731533 0 0 Z " fill="#333333" transform="translate(51.08984375,165.76953125)"/>
<path d="M0 0 C1.91015625 0.23046875 1.91015625 0.23046875 3.91015625 2.23046875 C3.53515625 4.85546875 3.53515625 4.85546875 2.91015625 7.23046875 C1.43108733 7.25736091 -0.04811858 7.27681496 -1.52734375 7.29296875 C-2.76291016 7.31037109 -2.76291016 7.31037109 -4.0234375 7.328125 C-6.08984375 7.23046875 -6.08984375 7.23046875 -7.08984375 6.23046875 C-7.21484375 3.73046875 -7.21484375 3.73046875 -7.08984375 1.23046875 C-5.19495423 -0.66442077 -2.51845229 0.05027763 0 0 Z " fill="#363636" transform="translate(164.08984375,161.76953125)"/>
<path d="M0 0 C3.0625 0.1875 3.0625 0.1875 5.0625 2.1875 C4.6875 4.8125 4.6875 4.8125 4.0625 7.1875 C1.7525 6.8575 -0.5575 6.5275 -2.9375 6.1875 C-3.31968767 4.53135343 -3.65145102 2.86292976 -3.9375 1.1875 C-2.9375 0.1875 -2.9375 0.1875 0 0 Z " fill="#343434" transform="translate(133.9375,50.8125)"/>
<path d="M0 0 C0.74507812 0.00902344 1.49015625 0.01804688 2.2578125 0.02734375 C4.08868059 0.05081642 5.91938238 0.08668475 7.75 0.125 C4.10903636 2.5523091 0.1656859 4.49101302 -4.3125 3.8125 C-4.951875 3.585625 -5.59125 3.35875 -6.25 3.125 C-8.24788438 2.77921232 -10.24759451 2.44356451 -12.25 2.125 C-8.4084024 -0.44280471 -4.4360825 -0.10188882 0 0 Z " fill="#414141" transform="translate(104.25,45.875)"/>
<path d="M0 0 C2.01822917 0.06510417 4.03645833 0.13020833 6.0546875 0.1953125 C6.0546875 0.5253125 6.0546875 0.8553125 6.0546875 1.1953125 C4.9409375 1.4428125 3.8271875 1.6903125 2.6796875 1.9453125 C-0.99146448 2.80536589 -0.99146448 2.80536589 -2.3828125 5.3203125 C-2.5684375 5.9390625 -2.7540625 6.5578125 -2.9453125 7.1953125 C-3.5703125 4.8203125 -3.5703125 4.8203125 -3.9453125 2.1953125 C-1.9453125 0.1953125 -1.9453125 0.1953125 0 0 Z " fill="#5D5D5D" transform="translate(46.9453125,156.8046875)"/>
<path d="M0 0 C2.01822917 0.06510417 4.03645833 0.13020833 6.0546875 0.1953125 C6.0546875 0.5253125 6.0546875 0.8553125 6.0546875 1.1953125 C4.3840625 1.5975 4.3840625 1.5975 2.6796875 2.0078125 C-1.16372201 2.85340269 -1.16372201 2.85340269 -2.9453125 6.1953125 C-3.5703125 4.3203125 -3.5703125 4.3203125 -3.9453125 2.1953125 C-1.9453125 0.1953125 -1.9453125 0.1953125 0 0 Z " fill="#4C4C4C" transform="translate(46.9453125,165.8046875)"/>
<path d="M0 0 C2.475 0.495 2.475 0.495 5 1 C4.67 1.99 4.34 2.98 4 4 C2.68 3.67 1.36 3.34 0 3 C0 2.01 0 1.02 0 0 Z " fill="#2B2B2B" transform="translate(121,54)"/>
</svg>
